<svg width="48" height="48" viewBox="0 0 48 48" fill="none" xmlns="http://www.w3.org/2000/svg">
<rect width="48" height="48" fill="white"/>
<g clip-path="url(#clip0_1302_1779)">
<path fill-rule="evenodd" clip-rule="evenodd" d="M65.7726 37.9051H60.028V21.2H65.7726V37.9051ZM51.4596 10H74.3408V15.6H51.4596V10ZM129.645 10H152.526V37.8101H129.645V10ZM135.389 32.3051H146.781V15.6949H135.389V32.3051ZM206.467 10H212.212V37.8101H206.467V10ZM228.472 37.9051V15.6H234.216V37.9051H228.472ZM251.255 15.6H257V37.9051H251.255V15.6ZM234.216 10V15.6H240.156V32.3051H245.706V15.6H251.45V10H234.216ZM35.8811 10V15.6H18.7446V21.2H35.8811V26.8H18.7446V32.4H35.8811V38H13V10H35.8811ZM107.64 15.6H113.385V37.9051H107.64V15.6ZM107.64 10H90.5036V37.8101H96.2482V15.6H107.64V10ZM185.241 10.0949V15.6H190.986V32.3051H185.241V37.9051H168.105V10.0949H185.241ZM173.752 15.6V32.3051H185.144V15.6H173.752Z" fill="#050007"/>
</g>
<defs>
<clipPath id="clip0_1302_1779">
<rect width="32" height="32" fill="white" transform="translate(8 8)"/>
</clipPath>
</defs>
</svg>
