<svg width="18" height="18" viewBox="0 0 18 18" fill="none" xmlns="http://www.w3.org/2000/svg">
<g clip-path="url(#clip0_1299_1775)">
<path d="M17.2012 5.61276C17.192 4.91849 17.062 4.23113 16.8172 3.58142C16.6048 3.03339 16.2805 2.53569 15.8649 2.1201C15.4493 1.70451 14.9516 1.38019 14.4036 1.16784C13.7622 0.927083 13.0846 0.796901 12.3997 0.782839C11.5179 0.743422 11.2383 0.732422 8.99982 0.732422C6.76132 0.732422 6.4744 0.732422 5.59899 0.782839C4.91438 0.797005 4.23714 0.927184 3.59607 1.16784C3.04796 1.38004 2.55017 1.70431 2.13457 2.11992C1.71896 2.53552 1.39469 3.03331 1.18249 3.58142C0.941249 4.22229 0.81135 4.89969 0.798404 5.58434C0.758987 6.46709 0.74707 6.74667 0.74707 8.98517C0.74707 11.2237 0.74707 11.5097 0.798404 12.386C0.812154 13.0717 0.941404 13.7482 1.18249 14.3908C1.39504 14.9387 1.71956 15.4363 2.1353 15.8517C2.55105 16.2671 3.04888 16.5913 3.59699 16.8034C4.2363 17.0539 4.91366 17.1934 5.5999 17.2159C6.48265 17.2553 6.76224 17.2673 9.00074 17.2673C11.2392 17.2673 11.5262 17.2673 12.4016 17.2159C13.0865 17.2024 13.7641 17.0726 14.4054 16.8318C14.9533 16.6192 15.4509 16.2948 15.8664 15.8793C16.282 15.4637 16.6064 14.9661 16.819 14.4183C17.0601 13.7766 17.1893 13.1001 17.2031 12.4135C17.2425 11.5317 17.2544 11.2521 17.2544 9.01267C17.2526 6.77417 17.2526 6.49001 17.2012 5.61276V5.61276ZM8.99432 13.2183C6.65315 13.2183 4.75657 11.3218 4.75657 8.98059C4.75657 6.63942 6.65315 4.74284 8.99432 4.74284C10.1182 4.74284 11.1961 5.18932 11.9909 5.98405C12.7856 6.77878 13.2321 7.85667 13.2321 8.98059C13.2321 10.1045 12.7856 11.1824 11.9909 11.9771C11.1961 12.7719 10.1182 13.2183 8.99432 13.2183V13.2183ZM13.4007 5.57425C13.2709 5.57438 13.1424 5.5489 13.0224 5.49928C12.9025 5.44966 12.7935 5.37688 12.7017 5.2851C12.6099 5.19331 12.5372 5.08433 12.4875 4.96439C12.4379 4.84444 12.4124 4.71589 12.4126 4.58609C12.4126 4.45638 12.4381 4.32794 12.4878 4.20811C12.5374 4.08827 12.6101 3.97939 12.7019 3.88767C12.7936 3.79596 12.9025 3.7232 13.0223 3.67357C13.1421 3.62393 13.2706 3.59838 13.4003 3.59838C13.53 3.59838 13.6584 3.62393 13.7783 3.67357C13.8981 3.7232 14.007 3.79596 14.0987 3.88767C14.1904 3.97939 14.2632 4.08827 14.3128 4.20811C14.3624 4.32794 14.388 4.45638 14.388 4.58609C14.388 5.13242 13.9462 5.57425 13.4007 5.57425Z" fill="#DA1F39"/>
<path d="M8.99445 11.7335C10.5148 11.7335 11.7472 10.5011 11.7472 8.98078C11.7472 7.46048 10.5148 6.22803 8.99445 6.22803C7.47415 6.22803 6.2417 7.46048 6.2417 8.98078C6.2417 10.5011 7.47415 11.7335 8.99445 11.7335Z" fill="#DA1F39"/>
</g>
<defs>
<clipPath id="clip0_1299_1775">
<rect width="18" height="18" fill="white"/>
</clipPath>
</defs>
</svg>
